<?xml version="1.0" encoding="UTF-8" standalone="no"?><svg xmlns="http://www.w3.org/2000/svg" xmlns:xlink="http://www.w3.org/1999/xlink" contentScriptType="text/ecmascript" fill="#000000" width="636.7" zoomAndPan="magnify" contentStyleType="text/css" viewBox="-1.8 -0.0 636.7 308.2" height="308.2" data-name="Layer 1" preserveAspectRatio="xMidYMid meet" version="1"><g id="change1_1"><path fill="#ffd304" d="M27.52,239.84a3.27,3.27,0,0,1-.53-.05,2.89,2.89,0,0,1-2.31-3.36A264.83,264.83,0,0,1,264.67,21a2.88,2.88,0,0,1,.44,5.75A259,259,0,0,0,30.36,237.48,2.89,2.89,0,0,1,27.52,239.84Zm313-216.74a23.11,23.11,0,1,0-23.11,23.11A23.13,23.13,0,0,0,340.52,23.1Zm-5.77,0A17.34,17.34,0,1,1,317.41,5.77,17.36,17.36,0,0,1,334.75,23.1Zm-288.54,262a23.11,23.11,0,1,0-23.11,23.1A23.14,23.14,0,0,0,46.21,285.11Zm-5.77,0A17.34,17.34,0,1,1,23.1,267.77,17.35,17.35,0,0,1,40.44,285.11Zm567.39-45.32a2.88,2.88,0,0,0,2.31-3.36A264.82,264.82,0,0,0,370.16,21a2.88,2.88,0,1,0-.44,5.75A259.06,259.06,0,0,1,604.47,237.48a2.89,2.89,0,0,0,2.83,2.36A3.07,3.07,0,0,0,607.83,239.79Zm27,45.32a23.11,23.11,0,1,0-23.11,23.1A23.14,23.14,0,0,0,634.83,285.11Zm-5.77,0a17.34,17.34,0,1,1-17.34-17.34A17.35,17.35,0,0,1,629.06,285.11Z"/></g></svg>