<?xml version="1.0" encoding="UTF-8" standalone="no"?><svg xmlns="http://www.w3.org/2000/svg" xmlns:xlink="http://www.w3.org/1999/xlink" contentScriptType="text/ecmascript" fill="#000000" width="333.6" zoomAndPan="magnify" contentStyleType="text/css" viewBox="0.0 0.0 333.6 565.2" height="565.2" preserveAspectRatio="xMidYMid meet" version="1"><defs><clipPath id="a"><path d="M 0 0 L 333.640625 0 L 333.640625 492 L 0 492 Z M 0 0"/></clipPath><clipPath id="b"><path d="M 23 510 L 311 510 L 311 565.199219 L 23 565.199219 Z M 23 510"/></clipPath></defs><g><g id="change1_3"><path fill="#f8cf2c" d="M 166.820312 80.0625 C 128.929688 80.0625 98.105469 110.890625 98.105469 148.777344 C 98.105469 186.671875 128.929688 217.496094 166.820312 217.496094 C 204.710938 217.496094 235.535156 186.671875 235.535156 148.777344 C 235.535156 110.890625 204.710938 80.0625 166.820312 80.0625 Z M 166.820312 232.21875 C 120.8125 232.21875 83.378906 194.789062 83.378906 148.777344 C 83.378906 102.769531 120.8125 65.339844 166.820312 65.339844 C 212.828125 65.339844 250.261719 102.769531 250.261719 148.777344 C 250.261719 194.789062 212.828125 232.21875 166.820312 232.21875"/></g><g id="change1_1" clip-path="url(#a)"><path fill="#f8cf2c" d="M 166.820312 15.1875 C 83.207031 15.1875 15.183594 83.210938 15.183594 166.824219 C 15.183594 293.777344 138.984375 439.132812 166.820312 470.199219 C 194.652344 439.132812 318.457031 293.777344 318.457031 166.824219 C 318.457031 83.210938 250.433594 15.1875 166.820312 15.1875 Z M 166.820312 491.082031 L 162.152344 487.445312 C 160.457031 486.121094 120.042969 442.699219 80.863281 383.335938 C 57.484375 347.90625 38.839844 313.394531 25.445312 280.761719 C 8.5625 239.617188 0 201.28125 0 166.824219 C 0 122.265625 17.351562 80.375 48.859375 48.867188 C 80.367188 17.355469 122.261719 0.00390625 166.820312 0.00390625 C 211.378906 0.00390625 253.269531 17.355469 284.78125 48.867188 C 316.285156 80.375 333.640625 122.265625 333.640625 166.824219 C 333.640625 201.28125 325.078125 239.617188 308.195312 280.761719 C 294.800781 313.394531 276.15625 347.90625 252.773438 383.335938 C 213.597656 442.699219 173.183594 486.121094 171.484375 487.445312 L 166.820312 491.082031"/></g><g id="change1_2" clip-path="url(#b)"><path fill="#f8cf2c" d="M 267.539062 510.488281 C 277.347656 514.273438 282.960938 518.660156 282.960938 523.339844 C 282.960938 537.578125 230.960938 549.121094 166.820312 549.121094 C 102.675781 549.121094 50.679688 537.578125 50.679688 523.339844 C 50.679688 518.660156 56.292969 514.273438 66.101562 510.488281 C 39.515625 516.28125 23.015625 524.351562 23.015625 533.273438 C 23.015625 550.90625 87.398438 565.199219 166.820312 565.199219 C 246.242188 565.199219 310.625 550.90625 310.625 533.273438 C 310.625 524.351562 294.125 516.28125 267.539062 510.488281"/></g><g id="change1_4"><path fill="#f8cf2c" d="M 217.382812 507.722656 C 222.308594 509.621094 225.125 511.824219 225.125 514.171875 C 225.125 521.320312 199.019531 527.117188 166.820312 527.117188 C 134.617188 527.117188 108.515625 521.320312 108.515625 514.171875 C 108.515625 511.824219 111.332031 509.621094 116.257812 507.722656 C 102.910156 510.632812 94.625 514.679688 94.625 519.160156 C 94.625 528.011719 126.949219 535.1875 166.820312 535.1875 C 206.691406 535.1875 239.015625 528.011719 239.015625 519.160156 C 239.015625 514.679688 230.730469 510.632812 217.382812 507.722656"/></g></g></svg>